# xmcd
#
# Track frame offsets: 
#        150
#        17657
#        33102
#        48617
#        66295
#        84877
#        100227
#        114220
#        131735
#        148752
#        163867
#        178695
#        195205
#        211732
#        225065
#        240855
#        258112
#        265537
#
# Disc length: 3745 seconds
#
# Revision: 0
# Processed by: cddbd v1.5.2PL0 Copyright (c) Steve Scherf et al.
# Submitted via: ExactAudioCopyFreeDBPlugin 1.0
#
DISCID=d80e9f12
DTITLE=西崎みどり - ベストアルバム~みどりに逢いたい
DYEAR=2003
DGENRE=Ballad
TTITLE0=はまなすの旅 
TTITLE1=あなたたずねて 
TTITLE2=おもかげ
TTITLE3=さみしさにほろ酔い 
TTITLE4=銀河平野
TTITLE5=小雨のルンバ 
TTITLE6=小指のきず 
TTITLE7=いつの日もいつの日も 
TTITLE8=冬は悲しい夢を 
TTITLE9=さざなみ 
TTITLE10=花散る頃に 
TTITLE11=笹舟 
TTITLE12=流星 
TTITLE13=旅愁 
TTITLE14=ねんねん船唄(デュエット:田端義夫)
TTITLE15=親星子星(デュエット:田端義夫)
TTITLE16=旅愁(TV用MONO1コーラス)
TTITLE17=旅愁(ライブ録音)
EXTD=
EXTT0=
EXTT1=
EXTT2=
EXTT3=
EXTT4=
EXTT5=
EXTT6=
EXTT7=
EXTT8=
EXTT9=
EXTT10=
EXTT11=
EXTT12=
EXTT13=
EXTT14=
EXTT15=
EXTT16=
EXTT17=
PLAYORDER=
